# xmcd CD database file
#
# Track frame offsets:
#	150
#	13632
#	27350
#	40905
#	55160
#	67897
#	82222
#	96557
#	110082
#	123850
#	137602
#	153265
#	169610
#	183692
#	198472
#	210582
#	223930
#	252607
#	264550
#	278505
#	292602
#	306270
#	318987
#
# Disc length: 4437 seconds
#
# Revision: 0
# Processed by: cddbd v1.5.2PL0 Copyright (c) Steve Scherf et al.
# Submitted via: CDex 1.70beta2
#
DISCID=55115317
DTITLE=Various Artist - The Story Of Pre-War Blues Disc 3
DYEAR=1900
DGENRE=Blues
TTITLE0=Jail Bird Love Song
TTITLE1=Be True Be True Blues
TTITLE2=Lonesome Atlanta Blues
TTITLE3=Mississippi Bo Weavil Blues
TTITLE4=Mississippi Bottom Blues
TTITLE5=Dough Roller Blues
TTITLE6=Fare Thee Well Blues
TTITLE7=Devil Got My Woman
TTITLE8=Old Devil
TTITLE9=Last Time Blues
TTITLE10=Leavin' Town Blues
TTITLE11=Maggie Campbell Blues
TTITLE12=Lead Pencil Blues ( It Just Won't Write )
TTITLE13=Married Man Blues
TTITLE14=Parchman Farm Blues
TTITLE15=Future Blues
TTITLE16=My Black Mama - Part 1 and 2
TTITLE17=Cross Road Blues ( take 1 )
TTITLE18=4A Highway
TTITLE19=Stepfather Blues
TTITLE20=Don't Go Down Baby
TTITLE21=Cotton Patch Blues
TTITLE22=Little Boy Blues
EXTD=
EXTT0=
EXTT1=
EXTT2=
EXTT3=
EXTT4=
EXTT5=
EXTT6=
EXTT7=
EXTT8=
EXTT9=
EXTT10=
EXTT11=
EXTT12=
EXTT13=
EXTT14=
EXTT15=
EXTT16=
EXTT17=
EXTT18=
EXTT19=
EXTT20=
EXTT21=
EXTT22=
PLAYORDER=
